<?xml version="1.0" encoding="UTF-8" standalone="no"?>
<!DOCTYPE svg PUBLIC "-//W3C//DTD SVG 1.1//EN"
 "http://www.w3.org/Graphics/SVG/1.1/DTD/svg11.dtd">
<!-- Generated by graphviz version 2.43.0 (0)
 -->
<!-- Title: snakemake_dag Pages: 1 -->
<svg width="584pt" height="548pt"
 viewBox="0.00 0.00 584.00 548.00" xmlns="http://www.w3.org/2000/svg" xmlns:xlink="http://www.w3.org/1999/xlink">
<g id="graph0" class="graph" transform="scale(1 1) rotate(0) translate(4 544)">
<title>snakemake_dag</title>
<polygon fill="white" stroke="transparent" points="-4,4 -4,-544 580,-544 580,4 -4,4"/>
<!-- 0 -->
<g id="node1" class="node">
<title>0</title>
<path fill="none" stroke="#56a9d8" stroke-width="2" stroke-dasharray="5,2" d="M274,-36C274,-36 244,-36 244,-36 238,-36 232,-30 232,-24 232,-24 232,-12 232,-12 232,-6 238,0 244,0 244,0 274,0 274,0 280,0 286,-6 286,-12 286,-12 286,-24 286,-24 286,-30 280,-36 274,-36"/>
<text text-anchor="middle" x="259" y="-15.5" font-family="sans" font-size="10.00">all</text>
</g>
<!-- 1 -->
<g id="node2" class="node">
<title>1</title>
<path fill="none" stroke="#56d8d8" stroke-width="2" stroke-dasharray="5,2" d="M498,-108C498,-108 318,-108 318,-108 312,-108 306,-102 306,-96 306,-96 306,-84 306,-84 306,-78 312,-72 318,-72 318,-72 498,-72 498,-72 504,-72 510,-78 510,-84 510,-84 510,-96 510,-96 510,-102 504,-108 498,-108"/>
<text text-anchor="middle" x="408" y="-87.5" font-family="sans" font-size="10.00">sort_and_index_simulated_reads_bam</text>
</g>
<!-- 1&#45;&gt;0 -->
<g id="edge1" class="edge">
<title>1&#45;&gt;0</title>
<path fill="none" stroke="grey" stroke-width="2" d="M371.55,-71.88C348.38,-60.99 318.5,-46.95 295.35,-36.07"/>
<polygon fill="grey" stroke="grey" stroke-width="2" points="296.73,-32.86 286.19,-31.78 293.76,-39.2 296.73,-32.86"/>
</g>
<!-- 2 -->
<g id="node3" class="node">
<title>2</title>
<path fill="none" stroke="#afd856" stroke-width="2" stroke-dasharray="5,2" d="M364,-396C364,-396 254,-396 254,-396 248,-396 242,-390 242,-384 242,-384 242,-372 242,-372 242,-366 248,-360 254,-360 254,-360 364,-360 364,-360 370,-360 376,-366 376,-372 376,-372 376,-384 376,-384 376,-390 370,-396 364,-396"/>
<text text-anchor="middle" x="309" y="-375.5" font-family="sans" font-size="10.00">mason_read_simulation</text>
</g>
<!-- 2&#45;&gt;0 -->
<g id="edge2" class="edge">
<title>2&#45;&gt;0</title>
<path fill="none" stroke="grey" stroke-width="2" d="M302.73,-359.78C293.67,-333.32 278,-280.92 278,-235 278,-235 278,-235 278,-161 278,-120.86 270.45,-74.9 264.87,-46.4"/>
<polygon fill="grey" stroke="grey" stroke-width="2" points="268.26,-45.5 262.85,-36.39 261.39,-46.88 268.26,-45.5"/>
</g>
<!-- 2&#45;&gt;1 -->
<g id="edge9" class="edge">
<title>2&#45;&gt;1</title>
<path fill="none" stroke="grey" stroke-width="2" d="M313.8,-359.81C324.84,-320.9 353.4,-223.29 384,-144 387.35,-135.33 391.39,-126.05 395.19,-117.71"/>
<polygon fill="grey" stroke="grey" stroke-width="2" points="398.45,-119 399.49,-108.45 392.1,-116.05 398.45,-119"/>
</g>
<!-- 6 -->
<g id="node7" class="node">
<title>6</title>
<path fill="none" stroke="#d8ac56" stroke-width="2" stroke-dasharray="5,2" d="M238,-324C238,-324 84,-324 84,-324 78,-324 72,-318 72,-312 72,-312 72,-300 72,-300 72,-294 78,-288 84,-288 84,-288 238,-288 238,-288 244,-288 250,-294 250,-300 250,-300 250,-312 250,-312 250,-318 244,-324 238,-324"/>
<text text-anchor="middle" x="161" y="-303.5" font-family="sans" font-size="10.00">align_simu_reads_to_original_ref</text>
</g>
<!-- 2&#45;&gt;6 -->
<g id="edge15" class="edge">
<title>2&#45;&gt;6</title>
<path fill="none" stroke="grey" stroke-width="2" d="M272.8,-359.88C252.74,-350.39 227.63,-338.51 206.29,-328.42"/>
<polygon fill="grey" stroke="grey" stroke-width="2" points="207.62,-325.18 197.09,-324.07 204.63,-331.51 207.62,-325.18"/>
</g>
<!-- 3 -->
<g id="node4" class="node">
<title>3</title>
<path fill="none" stroke="#56d882" stroke-width="2" stroke-dasharray="5,2" d="M60.5,-252C60.5,-252 13.5,-252 13.5,-252 7.5,-252 1.5,-246 1.5,-240 1.5,-240 1.5,-228 1.5,-228 1.5,-222 7.5,-216 13.5,-216 13.5,-216 60.5,-216 60.5,-216 66.5,-216 72.5,-222 72.5,-228 72.5,-228 72.5,-240 72.5,-240 72.5,-246 66.5,-252 60.5,-252"/>
<text text-anchor="middle" x="37" y="-231.5" font-family="sans" font-size="10.00">index_bam</text>
</g>
<!-- 3&#45;&gt;0 -->
<g id="edge3" class="edge">
<title>3&#45;&gt;0</title>
<path fill="none" stroke="grey" stroke-width="2" d="M27.35,-215.75C10.84,-183.64 -17.95,-114.15 16,-72 41.41,-40.45 160.13,-26.68 221.71,-21.57"/>
<polygon fill="grey" stroke="grey" stroke-width="2" points="222.11,-25.05 231.8,-20.77 221.55,-18.07 222.11,-25.05"/>
</g>
<!-- 4 -->
<g id="node5" class="node">
<title>4</title>
<path fill="none" stroke="#56d8a9" stroke-width="2" stroke-dasharray="5,2" d="M503.5,-468C503.5,-468 436.5,-468 436.5,-468 430.5,-468 424.5,-462 424.5,-456 424.5,-456 424.5,-444 424.5,-444 424.5,-438 430.5,-432 436.5,-432 436.5,-432 503.5,-432 503.5,-432 509.5,-432 515.5,-438 515.5,-444 515.5,-444 515.5,-456 515.5,-456 515.5,-462 509.5,-468 503.5,-468"/>
<text text-anchor="middle" x="470" y="-447.5" font-family="sans" font-size="10.00">survivor_simsv</text>
</g>
<!-- 4&#45;&gt;0 -->
<g id="edge4" class="edge">
<title>4&#45;&gt;0</title>
<path fill="none" stroke="grey" stroke-width="2" d="M494.59,-431.93C525.9,-407.96 576,-361.14 576,-307 576,-307 576,-307 576,-161 576,-117.63 570.03,-98.89 536,-72 499.26,-42.97 362.79,-27.73 296.13,-21.88"/>
<polygon fill="grey" stroke="grey" stroke-width="2" points="296.32,-18.39 286.06,-21.03 295.72,-25.36 296.32,-18.39"/>
</g>
<!-- 4&#45;&gt;2 -->
<g id="edge10" class="edge">
<title>4&#45;&gt;2</title>
<path fill="none" stroke="grey" stroke-width="2" d="M430.62,-431.88C408.61,-422.31 380.99,-410.3 357.64,-400.15"/>
<polygon fill="grey" stroke="grey" stroke-width="2" points="358.82,-396.85 348.26,-396.07 356.03,-403.27 358.82,-396.85"/>
</g>
<!-- 7 -->
<g id="node8" class="node">
<title>7</title>
<path fill="none" stroke="#d6d856" stroke-width="2" stroke-dasharray="5,2" d="M535.5,-180C535.5,-180 404.5,-180 404.5,-180 398.5,-180 392.5,-174 392.5,-168 392.5,-168 392.5,-156 392.5,-156 392.5,-150 398.5,-144 404.5,-144 404.5,-144 535.5,-144 535.5,-144 541.5,-144 547.5,-150 547.5,-156 547.5,-156 547.5,-168 547.5,-168 547.5,-174 541.5,-180 535.5,-180"/>
<text text-anchor="middle" x="470" y="-159.5" font-family="sans" font-size="10.00">vcf_sort_and_index_truthset</text>
</g>
<!-- 4&#45;&gt;7 -->
<g id="edge16" class="edge">
<title>4&#45;&gt;7</title>
<path fill="none" stroke="grey" stroke-width="2" d="M470,-431.97C470,-384.29 470,-249.18 470,-190.63"/>
<polygon fill="grey" stroke="grey" stroke-width="2" points="473.5,-190.31 470,-180.31 466.5,-190.31 473.5,-190.31"/>
</g>
<!-- 5 -->
<g id="node6" class="node">
<title>5</title>
<path fill="none" stroke="#5682d8" stroke-width="2" stroke-dasharray="5,2" d="M162.5,-108C162.5,-108 37.5,-108 37.5,-108 31.5,-108 25.5,-102 25.5,-96 25.5,-96 25.5,-84 25.5,-84 25.5,-78 31.5,-72 37.5,-72 37.5,-72 162.5,-72 162.5,-72 168.5,-72 174.5,-78 174.5,-84 174.5,-84 174.5,-96 174.5,-96 174.5,-102 168.5,-108 162.5,-108"/>
<text text-anchor="middle" x="100" y="-87.5" font-family="sans" font-size="10.00">vcf_sort_and_index_callset</text>
</g>
<!-- 5&#45;&gt;0 -->
<g id="edge5" class="edge">
<title>5&#45;&gt;0</title>
<path fill="none" stroke="grey" stroke-width="2" d="M138.9,-71.88C164.49,-60.61 197.77,-45.96 222.8,-34.94"/>
<polygon fill="grey" stroke="grey" stroke-width="2" points="224.22,-38.14 231.96,-30.9 221.4,-31.73 224.22,-38.14"/>
</g>
<!-- 6&#45;&gt;0 -->
<g id="edge6" class="edge">
<title>6&#45;&gt;0</title>
<path fill="none" stroke="grey" stroke-width="2" d="M177.46,-287.62C185.92,-277.84 195.74,-264.99 202,-252 235.58,-182.34 250.43,-91.15 256.06,-46.31"/>
<polygon fill="grey" stroke="grey" stroke-width="2" points="259.56,-46.55 257.27,-36.2 252.61,-45.72 259.56,-46.55"/>
</g>
<!-- 6&#45;&gt;3 -->
<g id="edge11" class="edge">
<title>6&#45;&gt;3</title>
<path fill="none" stroke="grey" stroke-width="2" d="M130.67,-287.88C114.3,-278.64 93.92,-267.13 76.35,-257.21"/>
<polygon fill="grey" stroke="grey" stroke-width="2" points="77.88,-254.06 67.45,-252.19 74.44,-260.15 77.88,-254.06"/>
</g>
<!-- 11 -->
<g id="node12" class="node">
<title>11</title>
<path fill="none" stroke="#d85656" stroke-width="2" stroke-dasharray="5,2" d="M181.5,-252C181.5,-252 140.5,-252 140.5,-252 134.5,-252 128.5,-246 128.5,-240 128.5,-240 128.5,-228 128.5,-228 128.5,-222 134.5,-216 140.5,-216 140.5,-216 181.5,-216 181.5,-216 187.5,-216 193.5,-222 193.5,-228 193.5,-228 193.5,-240 193.5,-240 193.5,-246 187.5,-252 181.5,-252"/>
<text text-anchor="middle" x="161" y="-231.5" font-family="sans" font-size="10.00">freebayes</text>
</g>
<!-- 6&#45;&gt;11 -->
<g id="edge18" class="edge">
<title>6&#45;&gt;11</title>
<path fill="none" stroke="grey" stroke-width="2" d="M161,-287.7C161,-279.98 161,-270.71 161,-262.11"/>
<polygon fill="grey" stroke="grey" stroke-width="2" points="164.5,-262.1 161,-252.1 157.5,-262.1 164.5,-262.1"/>
</g>
<!-- 7&#45;&gt;0 -->
<g id="edge7" class="edge">
<title>7&#45;&gt;0</title>
<path fill="none" stroke="grey" stroke-width="2" d="M491.15,-143.8C511.73,-125 537.41,-94.54 519,-72 491.33,-38.12 361.61,-25.34 296.49,-21"/>
<polygon fill="grey" stroke="grey" stroke-width="2" points="296.44,-17.49 286.24,-20.35 296,-24.47 296.44,-17.49"/>
</g>
<!-- 8 -->
<g id="node9" class="node">
<title>8</title>
<path fill="none" stroke="#80d856" stroke-width="2" stroke-dasharray="5,2" d="M192,-180C192,-180 130,-180 130,-180 124,-180 118,-174 118,-168 118,-168 118,-156 118,-156 118,-150 124,-144 130,-144 130,-144 192,-144 192,-144 198,-144 204,-150 204,-156 204,-156 204,-168 204,-168 204,-174 198,-180 192,-180"/>
<text text-anchor="middle" x="161" y="-159.5" font-family="sans" font-size="10.00">bcftools_norm</text>
</g>
<!-- 8&#45;&gt;0 -->
<g id="edge8" class="edge">
<title>8&#45;&gt;0</title>
<path fill="none" stroke="grey" stroke-width="2" d="M172.82,-143.87C189.89,-119.14 221.57,-73.24 241.39,-44.51"/>
<polygon fill="grey" stroke="grey" stroke-width="2" points="244.34,-46.41 247.14,-36.19 238.58,-42.43 244.34,-46.41"/>
</g>
<!-- 8&#45;&gt;5 -->
<g id="edge13" class="edge">
<title>8&#45;&gt;5</title>
<path fill="none" stroke="grey" stroke-width="2" d="M145.92,-143.7C138.61,-135.3 129.69,-125.07 121.67,-115.86"/>
<polygon fill="grey" stroke="grey" stroke-width="2" points="124.11,-113.34 114.91,-108.1 118.84,-117.94 124.11,-113.34"/>
</g>
<!-- 9 -->
<g id="node10" class="node">
<title>9</title>
<path fill="none" stroke="#59d856" stroke-width="2" stroke-dasharray="5,2" d="M539,-540C539,-540 401,-540 401,-540 395,-540 389,-534 389,-528 389,-528 389,-516 389,-516 389,-510 395,-504 401,-504 401,-504 539,-504 539,-504 545,-504 551,-510 551,-516 551,-516 551,-528 551,-528 551,-534 545,-540 539,-540"/>
<text text-anchor="middle" x="470" y="-519.5" font-family="sans" font-size="10.00">survivor_simsv_parameterfile</text>
</g>
<!-- 9&#45;&gt;4 -->
<g id="edge12" class="edge">
<title>9&#45;&gt;4</title>
<path fill="none" stroke="grey" stroke-width="2" d="M470,-503.7C470,-495.98 470,-486.71 470,-478.11"/>
<polygon fill="grey" stroke="grey" stroke-width="2" points="473.5,-478.1 470,-468.1 466.5,-478.1 473.5,-478.1"/>
</g>
<!-- 10 -->
<g id="node11" class="node">
<title>10</title>
<path fill="none" stroke="#d88556" stroke-width="2" stroke-dasharray="5,2" d="M180,-396C180,-396 142,-396 142,-396 136,-396 130,-390 130,-384 130,-384 130,-372 130,-372 130,-366 136,-360 142,-360 142,-360 180,-360 180,-360 186,-360 192,-366 192,-372 192,-372 192,-384 192,-384 192,-390 186,-396 180,-396"/>
<text text-anchor="middle" x="161" y="-375.5" font-family="sans" font-size="10.00">index_ref</text>
</g>
<!-- 10&#45;&gt;6 -->
<g id="edge14" class="edge">
<title>10&#45;&gt;6</title>
<path fill="none" stroke="grey" stroke-width="2" d="M161,-359.7C161,-351.98 161,-342.71 161,-334.11"/>
<polygon fill="grey" stroke="grey" stroke-width="2" points="164.5,-334.1 161,-324.1 157.5,-334.1 164.5,-334.1"/>
</g>
<!-- 11&#45;&gt;8 -->
<g id="edge17" class="edge">
<title>11&#45;&gt;8</title>
<path fill="none" stroke="grey" stroke-width="2" d="M161,-215.7C161,-207.98 161,-198.71 161,-190.11"/>
<polygon fill="grey" stroke="grey" stroke-width="2" points="164.5,-190.1 161,-180.1 157.5,-190.1 164.5,-190.1"/>
</g>
</g>
</svg>
