<?xml version="1.0" encoding="UTF-8" standalone="no"?>
<!DOCTYPE svg PUBLIC "-//W3C//DTD SVG 1.1//EN"
 "http://www.w3.org/Graphics/SVG/1.1/DTD/svg11.dtd">
<!-- Generated by graphviz version 2.43.0 (0)
 -->
<!-- Title: snakemake_dag Pages: 1 -->
<svg width="719pt" height="692pt"
 viewBox="0.00 0.00 718.94 692.00" xmlns="http://www.w3.org/2000/svg" xmlns:xlink="http://www.w3.org/1999/xlink">
<g id="graph0" class="graph" transform="scale(1 1) rotate(0) translate(4 688)">
<title>snakemake_dag</title>
<polygon fill="white" stroke="transparent" points="-4,4 -4,-688 714.94,-688 714.94,4 -4,4"/>
<!-- 0 -->
<g id="node1" class="node">
<title>0</title>
<path fill="none" stroke="#56d892" stroke-width="2" stroke-dasharray="5,2" d="M410.44,-36C410.44,-36 380.44,-36 380.44,-36 374.44,-36 368.44,-30 368.44,-24 368.44,-24 368.44,-12 368.44,-12 368.44,-6 374.44,0 380.44,0 380.44,0 410.44,0 410.44,0 416.44,0 422.44,-6 422.44,-12 422.44,-12 422.44,-24 422.44,-24 422.44,-30 416.44,-36 410.44,-36"/>
<text text-anchor="middle" x="395.44" y="-15.5" font-family="sans" font-size="10.00">all</text>
</g>
<!-- 1 -->
<g id="node2" class="node">
<title>1</title>
<path fill="none" stroke="#d8ac56" stroke-width="2" stroke-dasharray="5,2" d="M381.94,-180C381.94,-180 250.94,-180 250.94,-180 244.94,-180 238.94,-174 238.94,-168 238.94,-168 238.94,-156 238.94,-156 238.94,-150 244.94,-144 250.94,-144 250.94,-144 381.94,-144 381.94,-144 387.94,-144 393.94,-150 393.94,-156 393.94,-156 393.94,-168 393.94,-168 393.94,-174 387.94,-180 381.94,-180"/>
<text text-anchor="middle" x="316.44" y="-159.5" font-family="sans" font-size="10.00">freebayes_callset_index_vcf</text>
</g>
<!-- 1&#45;&gt;0 -->
<g id="edge1" class="edge">
<title>1&#45;&gt;0</title>
<path fill="none" stroke="grey" stroke-width="2" d="M325.97,-143.87C339.61,-119.35 364.83,-74.03 380.83,-45.26"/>
<polygon fill="grey" stroke="grey" stroke-width="2" points="384.08,-46.63 385.88,-36.19 377.96,-43.23 384.08,-46.63"/>
</g>
<!-- 3 -->
<g id="node4" class="node">
<title>3</title>
<path fill="none" stroke="#d85656" stroke-width="2" stroke-dasharray="5,2" d="M232.44,-108C232.44,-108 188.44,-108 188.44,-108 182.44,-108 176.44,-102 176.44,-96 176.44,-96 176.44,-84 176.44,-84 176.44,-78 182.44,-72 188.44,-72 188.44,-72 232.44,-72 232.44,-72 238.44,-72 244.44,-78 244.44,-84 244.44,-84 244.44,-96 244.44,-96 244.44,-102 238.44,-108 232.44,-108"/>
<text text-anchor="middle" x="210.44" y="-87.5" font-family="sans" font-size="10.00">evaluation</text>
</g>
<!-- 1&#45;&gt;3 -->
<g id="edge11" class="edge">
<title>1&#45;&gt;3</title>
<path fill="none" stroke="grey" stroke-width="2" d="M290.51,-143.88C276.78,-134.81 259.74,-123.55 244.91,-113.76"/>
<polygon fill="grey" stroke="grey" stroke-width="2" points="246.75,-110.78 236.47,-108.19 242.89,-116.62 246.75,-110.78"/>
</g>
<!-- 2 -->
<g id="node3" class="node">
<title>2</title>
<path fill="none" stroke="#59d856" stroke-width="2" stroke-dasharray="5,2" d="M698.94,-108C698.94,-108 537.94,-108 537.94,-108 531.94,-108 525.94,-102 525.94,-96 525.94,-96 525.94,-84 525.94,-84 525.94,-78 531.94,-72 537.94,-72 537.94,-72 698.94,-72 698.94,-72 704.94,-72 710.94,-78 710.94,-84 710.94,-84 710.94,-96 710.94,-96 710.94,-102 704.94,-108 698.94,-108"/>
<text text-anchor="middle" x="618.44" y="-87.5" font-family="sans" font-size="10.00">short_read_simulation_bam_index</text>
</g>
<!-- 2&#45;&gt;0 -->
<g id="edge2" class="edge">
<title>2&#45;&gt;0</title>
<path fill="none" stroke="grey" stroke-width="2" d="M564.18,-71.97C523.17,-59.09 467.99,-41.77 432.07,-30.5"/>
<polygon fill="grey" stroke="grey" stroke-width="2" points="433.07,-27.14 422.48,-27.49 430.97,-33.82 433.07,-27.14"/>
</g>
<!-- 3&#45;&gt;0 -->
<g id="edge3" class="edge">
<title>3&#45;&gt;0</title>
<path fill="none" stroke="grey" stroke-width="2" d="M244.81,-76C277.1,-63.78 325.29,-45.55 358.42,-33.01"/>
<polygon fill="grey" stroke="grey" stroke-width="2" points="360.07,-36.13 368.18,-29.31 357.59,-29.58 360.07,-36.13"/>
</g>
<!-- 4 -->
<g id="node5" class="node">
<title>4</title>
<path fill="none" stroke="#d8cb56" stroke-width="2" stroke-dasharray="5,2" d="M123.94,-612C123.94,-612 56.94,-612 56.94,-612 50.94,-612 44.94,-606 44.94,-600 44.94,-600 44.94,-588 44.94,-588 44.94,-582 50.94,-576 56.94,-576 56.94,-576 123.94,-576 123.94,-576 129.94,-576 135.94,-582 135.94,-588 135.94,-588 135.94,-600 135.94,-600 135.94,-606 129.94,-612 123.94,-612"/>
<text text-anchor="middle" x="90.44" y="-591.5" font-family="sans" font-size="10.00">survivor_simsv</text>
</g>
<!-- 4&#45;&gt;0 -->
<g id="edge4" class="edge">
<title>4&#45;&gt;0</title>
<path fill="none" stroke="grey" stroke-width="2" d="M72.25,-575.6C48.09,-550.53 8.44,-501.67 8.44,-451 8.44,-451 8.44,-451 8.44,-161 8.44,-140.58 -45.81,-147.17 123.44,-72 202.38,-36.94 304.38,-24.99 358.26,-20.98"/>
<polygon fill="grey" stroke="grey" stroke-width="2" points="358.65,-24.46 368.38,-20.28 358.16,-17.48 358.65,-24.46"/>
</g>
<!-- 5 -->
<g id="node6" class="node">
<title>5</title>
<path fill="none" stroke="#c6d856" stroke-width="2" stroke-dasharray="5,2" d="M530.44,-540C530.44,-540 390.44,-540 390.44,-540 384.44,-540 378.44,-534 378.44,-528 378.44,-528 378.44,-516 378.44,-516 378.44,-510 384.44,-504 390.44,-504 390.44,-504 530.44,-504 530.44,-504 536.44,-504 542.44,-510 542.44,-516 542.44,-516 542.44,-528 542.44,-528 542.44,-534 536.44,-540 530.44,-540"/>
<text text-anchor="middle" x="460.44" y="-519.5" font-family="sans" font-size="10.00">short_read_simulation_mason</text>
</g>
<!-- 4&#45;&gt;5 -->
<g id="edge16" class="edge">
<title>4&#45;&gt;5</title>
<path fill="none" stroke="grey" stroke-width="2" d="M136.18,-584.35C193.8,-573.45 294.18,-554.45 368.04,-540.48"/>
<polygon fill="grey" stroke="grey" stroke-width="2" points="369.1,-543.84 378.28,-538.54 367.8,-536.96 369.1,-543.84"/>
</g>
<!-- 17 -->
<g id="node18" class="node">
<title>17</title>
<path fill="none" stroke="#56d8c9" stroke-width="2" stroke-dasharray="5,2" d="M132.44,-468C132.44,-468 48.44,-468 48.44,-468 42.44,-468 36.44,-462 36.44,-456 36.44,-456 36.44,-444 36.44,-444 36.44,-438 42.44,-432 48.44,-432 48.44,-432 132.44,-432 132.44,-432 138.44,-432 144.44,-438 144.44,-444 144.44,-444 144.44,-456 144.44,-456 144.44,-462 138.44,-468 132.44,-468"/>
<text text-anchor="middle" x="90.44" y="-447.5" font-family="sans" font-size="10.00">truthset_hotfix_vcf</text>
</g>
<!-- 4&#45;&gt;17 -->
<g id="edge27" class="edge">
<title>4&#45;&gt;17</title>
<path fill="none" stroke="grey" stroke-width="2" d="M90.44,-575.87C90.44,-551.67 90.44,-507.21 90.44,-478.39"/>
<polygon fill="grey" stroke="grey" stroke-width="2" points="93.94,-478.19 90.44,-468.19 86.94,-478.19 93.94,-478.19"/>
</g>
<!-- 5&#45;&gt;0 -->
<g id="edge5" class="edge">
<title>5&#45;&gt;0</title>
<path fill="none" stroke="grey" stroke-width="2" d="M460.44,-503.95C460.44,-477.29 460.44,-424.11 460.44,-379 460.44,-379 460.44,-379 460.44,-161 460.44,-116.96 434.28,-71.64 415.15,-44.4"/>
<polygon fill="grey" stroke="grey" stroke-width="2" points="417.92,-42.26 409.23,-36.21 412.25,-46.36 417.92,-42.26"/>
</g>
<!-- 8 -->
<g id="node9" class="node">
<title>8</title>
<path fill="none" stroke="#8fd856" stroke-width="2" stroke-dasharray="5,2" d="M652.44,-180C652.44,-180 500.44,-180 500.44,-180 494.44,-180 488.44,-174 488.44,-168 488.44,-168 488.44,-156 488.44,-156 488.44,-150 494.44,-144 500.44,-144 500.44,-144 652.44,-144 652.44,-144 658.44,-144 664.44,-150 664.44,-156 664.44,-156 664.44,-168 664.44,-168 664.44,-174 658.44,-180 652.44,-180"/>
<text text-anchor="middle" x="576.44" y="-159.5" font-family="sans" font-size="10.00">short_read_simulation_bam_sort</text>
</g>
<!-- 5&#45;&gt;8 -->
<g id="edge19" class="edge">
<title>5&#45;&gt;8</title>
<path fill="none" stroke="grey" stroke-width="2" d="M477.15,-503.81C499.8,-478.62 537.44,-429.2 537.44,-379 537.44,-379 537.44,-379 537.44,-305 537.44,-263.56 553.08,-217.67 564.55,-189.58"/>
<polygon fill="grey" stroke="grey" stroke-width="2" points="567.9,-190.65 568.55,-180.07 561.45,-187.93 567.9,-190.65"/>
</g>
<!-- 12 -->
<g id="node13" class="node">
<title>12</title>
<path fill="none" stroke="#56d873" stroke-width="2" stroke-dasharray="5,2" d="M384.94,-468C384.94,-468 285.94,-468 285.94,-468 279.94,-468 273.94,-462 273.94,-456 273.94,-456 273.94,-444 273.94,-444 273.94,-438 279.94,-432 285.94,-432 285.94,-432 384.94,-432 384.94,-432 390.94,-432 396.94,-438 396.94,-444 396.94,-444 396.94,-456 396.94,-456 396.94,-462 390.94,-468 384.94,-468"/>
<text text-anchor="middle" x="335.44" y="-447.5" font-family="sans" font-size="10.00">short_read_alignment</text>
</g>
<!-- 5&#45;&gt;12 -->
<g id="edge23" class="edge">
<title>5&#45;&gt;12</title>
<path fill="none" stroke="grey" stroke-width="2" d="M429.87,-503.88C413.37,-494.64 392.82,-483.13 375.11,-473.21"/>
<polygon fill="grey" stroke="grey" stroke-width="2" points="376.57,-470.02 366.14,-468.19 373.15,-476.13 376.57,-470.02"/>
</g>
<!-- 6 -->
<g id="node7" class="node">
<title>6</title>
<path fill="none" stroke="#56a9d8" stroke-width="2" stroke-dasharray="5,2" d="M420.44,-396C420.44,-396 262.44,-396 262.44,-396 256.44,-396 250.44,-390 250.44,-384 250.44,-384 250.44,-372 250.44,-372 250.44,-366 256.44,-360 262.44,-360 262.44,-360 420.44,-360 420.44,-360 426.44,-360 432.44,-366 432.44,-372 432.44,-372 432.44,-384 432.44,-384 432.44,-390 426.44,-396 420.44,-396"/>
<text text-anchor="middle" x="341.44" y="-375.5" font-family="sans" font-size="10.00">short_read_alignment_bam_index</text>
</g>
<!-- 6&#45;&gt;0 -->
<g id="edge6" class="edge">
<title>6&#45;&gt;0</title>
<path fill="none" stroke="grey" stroke-width="2" d="M359.02,-359.98C382.84,-334.99 422.44,-285.8 422.44,-235 422.44,-235 422.44,-235 422.44,-161 422.44,-120.5 411.71,-74.63 403.78,-46.26"/>
<polygon fill="grey" stroke="grey" stroke-width="2" points="407.04,-44.93 400.91,-36.29 400.31,-46.87 407.04,-44.93"/>
</g>
<!-- 7 -->
<g id="node8" class="node">
<title>7</title>
<path fill="none" stroke="#d87556" stroke-width="2" stroke-dasharray="5,2" d="M131.94,-180C131.94,-180 48.94,-180 48.94,-180 42.94,-180 36.94,-174 36.94,-168 36.94,-168 36.94,-156 36.94,-156 36.94,-150 42.94,-144 48.94,-144 48.94,-144 131.94,-144 131.94,-144 137.94,-144 143.94,-150 143.94,-156 143.94,-156 143.94,-168 143.94,-168 143.94,-174 137.94,-180 131.94,-180"/>
<text text-anchor="middle" x="90.44" y="-159.5" font-family="sans" font-size="10.00">truthset_index_vcf</text>
</g>
<!-- 7&#45;&gt;0 -->
<g id="edge7" class="edge">
<title>7&#45;&gt;0</title>
<path fill="none" stroke="grey" stroke-width="2" d="M100.61,-143.69C113.51,-123.3 137.71,-89.95 167.44,-72 227.61,-35.69 310.52,-24.25 358,-20.65"/>
<polygon fill="grey" stroke="grey" stroke-width="2" points="358.4,-24.13 368.14,-19.96 357.93,-17.15 358.4,-24.13"/>
</g>
<!-- 7&#45;&gt;3 -->
<g id="edge14" class="edge">
<title>7&#45;&gt;3</title>
<path fill="none" stroke="grey" stroke-width="2" d="M119.8,-143.88C135.49,-134.72 155,-123.34 171.9,-113.48"/>
<polygon fill="grey" stroke="grey" stroke-width="2" points="174.1,-116.25 180.98,-108.19 170.57,-110.21 174.1,-116.25"/>
</g>
<!-- 8&#45;&gt;0 -->
<g id="edge8" class="edge">
<title>8&#45;&gt;0</title>
<path fill="none" stroke="grey" stroke-width="2" d="M557.17,-143.67C532.43,-121.51 490.76,-84.51 474.44,-72 460.79,-61.53 445.17,-50.8 431.44,-41.76"/>
<polygon fill="grey" stroke="grey" stroke-width="2" points="433.02,-38.62 422.73,-36.09 429.19,-44.48 433.02,-38.62"/>
</g>
<!-- 8&#45;&gt;2 -->
<g id="edge10" class="edge">
<title>8&#45;&gt;2</title>
<path fill="none" stroke="grey" stroke-width="2" d="M586.83,-143.7C591.71,-135.56 597.63,-125.69 603.02,-116.7"/>
<polygon fill="grey" stroke="grey" stroke-width="2" points="606.04,-118.48 608.18,-108.1 600.03,-114.88 606.04,-118.48"/>
</g>
<!-- 9 -->
<g id="node10" class="node">
<title>9</title>
<path fill="none" stroke="#5673d8" stroke-width="2" stroke-dasharray="5,2" d="M292.94,-252C292.94,-252 169.94,-252 169.94,-252 163.94,-252 157.94,-246 157.94,-240 157.94,-240 157.94,-228 157.94,-228 157.94,-222 163.94,-216 169.94,-216 169.94,-216 292.94,-216 292.94,-216 298.94,-216 304.94,-222 304.94,-228 304.94,-228 304.94,-240 304.94,-240 304.94,-246 298.94,-252 292.94,-252"/>
<text text-anchor="middle" x="231.44" y="-231.5" font-family="sans" font-size="10.00">freebayes_callset_sort_vcf</text>
</g>
<!-- 9&#45;&gt;1 -->
<g id="edge9" class="edge">
<title>9&#45;&gt;1</title>
<path fill="none" stroke="grey" stroke-width="2" d="M252.45,-215.7C263.16,-206.88 276.33,-196.03 287.94,-186.47"/>
<polygon fill="grey" stroke="grey" stroke-width="2" points="290.18,-189.16 295.67,-180.1 285.73,-183.76 290.18,-189.16"/>
</g>
<!-- 9&#45;&gt;3 -->
<g id="edge12" class="edge">
<title>9&#45;&gt;3</title>
<path fill="none" stroke="grey" stroke-width="2" d="M228.91,-215.87C225.33,-191.67 218.76,-147.21 214.49,-118.39"/>
<polygon fill="grey" stroke="grey" stroke-width="2" points="217.91,-117.57 212.99,-108.19 210.99,-118.59 217.91,-117.57"/>
</g>
<!-- 10 -->
<g id="node11" class="node">
<title>10</title>
<path fill="none" stroke="#56d8a9" stroke-width="2" stroke-dasharray="5,2" d="M127.94,-252C127.94,-252 52.94,-252 52.94,-252 46.94,-252 40.94,-246 40.94,-240 40.94,-240 40.94,-228 40.94,-228 40.94,-222 46.94,-216 52.94,-216 52.94,-216 127.94,-216 127.94,-216 133.94,-216 139.94,-222 139.94,-228 139.94,-228 139.94,-240 139.94,-240 139.94,-246 133.94,-252 127.94,-252"/>
<text text-anchor="middle" x="90.44" y="-231.5" font-family="sans" font-size="10.00">truthset_sort_vcf</text>
</g>
<!-- 10&#45;&gt;3 -->
<g id="edge13" class="edge">
<title>10&#45;&gt;3</title>
<path fill="none" stroke="grey" stroke-width="2" d="M113.66,-215.78C125.95,-206.04 140.86,-193.2 152.44,-180 169.62,-160.44 185.49,-135.39 196.27,-116.85"/>
<polygon fill="grey" stroke="grey" stroke-width="2" points="199.36,-118.49 201.28,-108.07 193.28,-115.02 199.36,-118.49"/>
</g>
<!-- 10&#45;&gt;7 -->
<g id="edge18" class="edge">
<title>10&#45;&gt;7</title>
<path fill="none" stroke="grey" stroke-width="2" d="M90.44,-215.7C90.44,-207.98 90.44,-198.71 90.44,-190.11"/>
<polygon fill="grey" stroke="grey" stroke-width="2" points="93.94,-190.1 90.44,-180.1 86.94,-190.1 93.94,-190.1"/>
</g>
<!-- 11 -->
<g id="node12" class="node">
<title>11</title>
<path fill="none" stroke="#70d856" stroke-width="2" stroke-dasharray="5,2" d="M159.44,-684C159.44,-684 21.44,-684 21.44,-684 15.44,-684 9.44,-678 9.44,-672 9.44,-672 9.44,-660 9.44,-660 9.44,-654 15.44,-648 21.44,-648 21.44,-648 159.44,-648 159.44,-648 165.44,-648 171.44,-654 171.44,-660 171.44,-660 171.44,-672 171.44,-672 171.44,-678 165.44,-684 159.44,-684"/>
<text text-anchor="middle" x="90.44" y="-663.5" font-family="sans" font-size="10.00">survivor_simsv_parameterfile</text>
</g>
<!-- 11&#45;&gt;4 -->
<g id="edge15" class="edge">
<title>11&#45;&gt;4</title>
<path fill="none" stroke="grey" stroke-width="2" d="M90.44,-647.7C90.44,-639.98 90.44,-630.71 90.44,-622.11"/>
<polygon fill="grey" stroke="grey" stroke-width="2" points="93.94,-622.1 90.44,-612.1 86.94,-622.1 93.94,-622.1"/>
</g>
<!-- 12&#45;&gt;6 -->
<g id="edge17" class="edge">
<title>12&#45;&gt;6</title>
<path fill="none" stroke="grey" stroke-width="2" d="M336.93,-431.7C337.59,-423.98 338.38,-414.71 339.12,-406.11"/>
<polygon fill="grey" stroke="grey" stroke-width="2" points="342.61,-406.37 339.98,-396.1 335.64,-405.77 342.61,-406.37"/>
</g>
<!-- 16 -->
<g id="node17" class="node">
<title>16</title>
<path fill="none" stroke="#d88d56" stroke-width="2" stroke-dasharray="5,2" d="M219.94,-396C219.94,-396 178.94,-396 178.94,-396 172.94,-396 166.94,-390 166.94,-384 166.94,-384 166.94,-372 166.94,-372 166.94,-366 172.94,-360 178.94,-360 178.94,-360 219.94,-360 219.94,-360 225.94,-360 231.94,-366 231.94,-372 231.94,-372 231.94,-384 231.94,-384 231.94,-390 225.94,-396 219.94,-396"/>
<text text-anchor="middle" x="199.44" y="-375.5" font-family="sans" font-size="10.00">freebayes</text>
</g>
<!-- 12&#45;&gt;16 -->
<g id="edge26" class="edge">
<title>12&#45;&gt;16</title>
<path fill="none" stroke="grey" stroke-width="2" d="M302.17,-431.88C283.84,-422.44 260.91,-410.64 241.37,-400.58"/>
<polygon fill="grey" stroke="grey" stroke-width="2" points="242.86,-397.41 232.37,-395.95 239.66,-403.64 242.86,-397.41"/>
</g>
<!-- 13 -->
<g id="node14" class="node">
<title>13</title>
<path fill="none" stroke="#56c9d8" stroke-width="2" stroke-dasharray="5,2" d="M280.44,-324C280.44,-324 150.44,-324 150.44,-324 144.44,-324 138.44,-318 138.44,-312 138.44,-312 138.44,-300 138.44,-300 138.44,-294 144.44,-288 150.44,-288 150.44,-288 280.44,-288 280.44,-288 286.44,-288 292.44,-294 292.44,-300 292.44,-300 292.44,-312 292.44,-312 292.44,-318 286.44,-324 280.44,-324"/>
<text text-anchor="middle" x="215.44" y="-303.5" font-family="sans" font-size="10.00">freebayes_callset_norm_vcf</text>
</g>
<!-- 13&#45;&gt;9 -->
<g id="edge20" class="edge">
<title>13&#45;&gt;9</title>
<path fill="none" stroke="grey" stroke-width="2" d="M219.4,-287.7C221.16,-279.98 223.28,-270.71 225.25,-262.11"/>
<polygon fill="grey" stroke="grey" stroke-width="2" points="228.72,-262.63 227.53,-252.1 221.89,-261.07 228.72,-262.63"/>
</g>
<!-- 14 -->
<g id="node15" class="node">
<title>14</title>
<path fill="none" stroke="#5692d8" stroke-width="2" stroke-dasharray="5,2" d="M131.44,-396C131.44,-396 49.44,-396 49.44,-396 43.44,-396 37.44,-390 37.44,-384 37.44,-384 37.44,-372 37.44,-372 37.44,-366 43.44,-360 49.44,-360 49.44,-360 131.44,-360 131.44,-360 137.44,-360 143.44,-366 143.44,-372 143.44,-372 143.44,-384 143.44,-384 143.44,-390 137.44,-396 131.44,-396"/>
<text text-anchor="middle" x="90.44" y="-375.5" font-family="sans" font-size="10.00">truthset_norm_vcf</text>
</g>
<!-- 14&#45;&gt;10 -->
<g id="edge21" class="edge">
<title>14&#45;&gt;10</title>
<path fill="none" stroke="grey" stroke-width="2" d="M90.44,-359.87C90.44,-335.67 90.44,-291.21 90.44,-262.39"/>
<polygon fill="grey" stroke="grey" stroke-width="2" points="93.94,-262.19 90.44,-252.19 86.94,-262.19 93.94,-262.19"/>
</g>
<!-- 15 -->
<g id="node16" class="node">
<title>15</title>
<path fill="none" stroke="#afd856" stroke-width="2" stroke-dasharray="5,2" d="M348.44,-540C348.44,-540 310.44,-540 310.44,-540 304.44,-540 298.44,-534 298.44,-528 298.44,-528 298.44,-516 298.44,-516 298.44,-510 304.44,-504 310.44,-504 310.44,-504 348.44,-504 348.44,-504 354.44,-504 360.44,-510 360.44,-516 360.44,-516 360.44,-528 360.44,-528 360.44,-534 354.44,-540 348.44,-540"/>
<text text-anchor="middle" x="329.44" y="-519.5" font-family="sans" font-size="10.00">index_ref</text>
</g>
<!-- 15&#45;&gt;12 -->
<g id="edge22" class="edge">
<title>15&#45;&gt;12</title>
<path fill="none" stroke="grey" stroke-width="2" d="M330.93,-503.7C331.59,-495.98 332.38,-486.71 333.12,-478.11"/>
<polygon fill="grey" stroke="grey" stroke-width="2" points="336.61,-478.37 333.98,-468.1 329.64,-477.77 336.61,-478.37"/>
</g>
<!-- 16&#45;&gt;13 -->
<g id="edge24" class="edge">
<title>16&#45;&gt;13</title>
<path fill="none" stroke="grey" stroke-width="2" d="M203.4,-359.7C205.16,-351.98 207.28,-342.71 209.25,-334.11"/>
<polygon fill="grey" stroke="grey" stroke-width="2" points="212.72,-334.63 211.53,-324.1 205.89,-333.07 212.72,-334.63"/>
</g>
<!-- 17&#45;&gt;14 -->
<g id="edge25" class="edge">
<title>17&#45;&gt;14</title>
<path fill="none" stroke="grey" stroke-width="2" d="M90.44,-431.7C90.44,-423.98 90.44,-414.71 90.44,-406.11"/>
<polygon fill="grey" stroke="grey" stroke-width="2" points="93.94,-406.1 90.44,-396.1 86.94,-406.1 93.94,-406.1"/>
</g>
</g>
</svg>
