<?xml version="1.0" encoding="UTF-8" standalone="no"?>
<!DOCTYPE svg PUBLIC "-//W3C//DTD SVG 1.1//EN"
 "http://www.w3.org/Graphics/SVG/1.1/DTD/svg11.dtd">
<!-- Generated by graphviz version 2.43.0 (0)
 -->
<!-- Title: snakemake_dag Pages: 1 -->
<svg width="559pt" height="620pt"
 viewBox="0.00 0.00 559.30 620.00" xmlns="http://www.w3.org/2000/svg" xmlns:xlink="http://www.w3.org/1999/xlink">
<g id="graph0" class="graph" transform="scale(1 1) rotate(0) translate(4 616)">
<title>snakemake_dag</title>
<polygon fill="white" stroke="transparent" points="-4,4 -4,-616 555.3,-616 555.3,4 -4,4"/>
<!-- 0 -->
<g id="node1" class="node">
<title>0</title>
<path fill="none" stroke="#56d89a" stroke-width="2" stroke-dasharray="5,2" d="M211.8,-36C211.8,-36 181.8,-36 181.8,-36 175.8,-36 169.8,-30 169.8,-24 169.8,-24 169.8,-12 169.8,-12 169.8,-6 175.8,0 181.8,0 181.8,0 211.8,0 211.8,0 217.8,0 223.8,-6 223.8,-12 223.8,-12 223.8,-24 223.8,-24 223.8,-30 217.8,-36 211.8,-36"/>
<text text-anchor="middle" x="196.8" y="-15.5" font-family="sans" font-size="10.00">all</text>
</g>
<!-- 1 -->
<g id="node2" class="node">
<title>1</title>
<path fill="none" stroke="#59d856" stroke-width="2" stroke-dasharray="5,2" d="M315.8,-252C315.8,-252 157.8,-252 157.8,-252 151.8,-252 145.8,-246 145.8,-240 145.8,-240 145.8,-228 145.8,-228 145.8,-222 151.8,-216 157.8,-216 157.8,-216 315.8,-216 315.8,-216 321.8,-216 327.8,-222 327.8,-228 327.8,-228 327.8,-240 327.8,-240 327.8,-246 321.8,-252 315.8,-252"/>
<text text-anchor="middle" x="236.8" y="-231.5" font-family="sans" font-size="10.00">short_read_alignment_bam_index</text>
</g>
<!-- 1&#45;&gt;0 -->
<g id="edge1" class="edge">
<title>1&#45;&gt;0</title>
<path fill="none" stroke="grey" stroke-width="2" d="M253.35,-215.63C280.39,-185.08 328.18,-120.39 298.8,-72 284.72,-48.82 256.85,-35.32 233.79,-27.75"/>
<polygon fill="grey" stroke="grey" stroke-width="2" points="234.52,-24.31 223.93,-24.76 232.49,-31.01 234.52,-24.31"/>
</g>
<!-- 2 -->
<g id="node3" class="node">
<title>2</title>
<path fill="none" stroke="#d89556" stroke-width="2" stroke-dasharray="5,2" d="M146.3,-540C146.3,-540 79.3,-540 79.3,-540 73.3,-540 67.3,-534 67.3,-528 67.3,-528 67.3,-516 67.3,-516 67.3,-510 73.3,-504 79.3,-504 79.3,-504 146.3,-504 146.3,-504 152.3,-504 158.3,-510 158.3,-516 158.3,-516 158.3,-528 158.3,-528 158.3,-534 152.3,-540 146.3,-540"/>
<text text-anchor="middle" x="112.8" y="-519.5" font-family="sans" font-size="10.00">survivor_simsv</text>
</g>
<!-- 2&#45;&gt;0 -->
<g id="edge2" class="edge">
<title>2&#45;&gt;0</title>
<path fill="none" stroke="grey" stroke-width="2" d="M67.56,-503.77C50.92,-495.34 33.33,-483.57 21.8,-468 -2.39,-435.34 0.8,-419.64 0.8,-379 0.8,-379 0.8,-379 0.8,-161 0.8,-115.85 15.46,-101.32 49.8,-72 81.35,-45.05 127.67,-31.39 159.85,-24.75"/>
<polygon fill="grey" stroke="grey" stroke-width="2" points="160.61,-28.17 169.77,-22.84 159.29,-21.3 160.61,-28.17"/>
</g>
<!-- 3 -->
<g id="node4" class="node">
<title>3</title>
<path fill="none" stroke="#d8b456" stroke-width="2" stroke-dasharray="5,2" d="M182.8,-468C182.8,-468 42.8,-468 42.8,-468 36.8,-468 30.8,-462 30.8,-456 30.8,-456 30.8,-444 30.8,-444 30.8,-438 36.8,-432 42.8,-432 42.8,-432 182.8,-432 182.8,-432 188.8,-432 194.8,-438 194.8,-444 194.8,-444 194.8,-456 194.8,-456 194.8,-462 188.8,-468 182.8,-468"/>
<text text-anchor="middle" x="112.8" y="-447.5" font-family="sans" font-size="10.00">short_read_simulation_mason</text>
</g>
<!-- 2&#45;&gt;3 -->
<g id="edge10" class="edge">
<title>2&#45;&gt;3</title>
<path fill="none" stroke="grey" stroke-width="2" d="M112.8,-503.7C112.8,-495.98 112.8,-486.71 112.8,-478.11"/>
<polygon fill="grey" stroke="grey" stroke-width="2" points="116.3,-478.1 112.8,-468.1 109.3,-478.1 116.3,-478.1"/>
</g>
<!-- 13 -->
<g id="node14" class="node">
<title>13</title>
<path fill="none" stroke="#d87556" stroke-width="2" stroke-dasharray="5,2" d="M424.8,-468C424.8,-468 342.8,-468 342.8,-468 336.8,-468 330.8,-462 330.8,-456 330.8,-456 330.8,-444 330.8,-444 330.8,-438 336.8,-432 342.8,-432 342.8,-432 424.8,-432 424.8,-432 430.8,-432 436.8,-438 436.8,-444 436.8,-444 436.8,-456 436.8,-456 436.8,-462 430.8,-468 424.8,-468"/>
<text text-anchor="middle" x="383.8" y="-447.5" font-family="sans" font-size="10.00">truthset_norm_vcf</text>
</g>
<!-- 2&#45;&gt;13 -->
<g id="edge19" class="edge">
<title>2&#45;&gt;13</title>
<path fill="none" stroke="grey" stroke-width="2" d="M158.46,-509.2C202.92,-497.72 270.85,-480.18 320.5,-467.35"/>
<polygon fill="grey" stroke="grey" stroke-width="2" points="321.69,-470.66 330.49,-464.77 319.94,-463.88 321.69,-470.66"/>
</g>
<!-- 3&#45;&gt;0 -->
<g id="edge3" class="edge">
<title>3&#45;&gt;0</title>
<path fill="none" stroke="grey" stroke-width="2" d="M96.74,-431.69C74.98,-406.36 38.8,-356.76 38.8,-307 38.8,-307 38.8,-307 38.8,-161 38.8,-116.27 53.53,-102.99 85.8,-72 106.69,-51.94 136.6,-38.26 160.11,-29.83"/>
<polygon fill="grey" stroke="grey" stroke-width="2" points="161.42,-33.08 169.75,-26.53 159.15,-26.46 161.42,-33.08"/>
</g>
<!-- 5 -->
<g id="node6" class="node">
<title>5</title>
<path fill="none" stroke="#56d8b9" stroke-width="2" stroke-dasharray="5,2" d="M230.8,-180C230.8,-180 78.8,-180 78.8,-180 72.8,-180 66.8,-174 66.8,-168 66.8,-168 66.8,-156 66.8,-156 66.8,-150 72.8,-144 78.8,-144 78.8,-144 230.8,-144 230.8,-144 236.8,-144 242.8,-150 242.8,-156 242.8,-156 242.8,-168 242.8,-168 242.8,-174 236.8,-180 230.8,-180"/>
<text text-anchor="middle" x="154.8" y="-159.5" font-family="sans" font-size="10.00">short_read_simulation_bam_sort</text>
</g>
<!-- 3&#45;&gt;5 -->
<g id="edge12" class="edge">
<title>3&#45;&gt;5</title>
<path fill="none" stroke="grey" stroke-width="2" d="M113.25,-431.84C114.56,-392.97 119.44,-295.46 136.8,-216 138.68,-207.36 141.5,-198.17 144.36,-189.9"/>
<polygon fill="grey" stroke="grey" stroke-width="2" points="147.69,-190.98 147.79,-180.39 141.1,-188.61 147.69,-190.98"/>
</g>
<!-- 8 -->
<g id="node9" class="node">
<title>8</title>
<path fill="none" stroke="#78d856" stroke-width="2" stroke-dasharray="5,2" d="M290.3,-396C290.3,-396 191.3,-396 191.3,-396 185.3,-396 179.3,-390 179.3,-384 179.3,-384 179.3,-372 179.3,-372 179.3,-366 185.3,-360 191.3,-360 191.3,-360 290.3,-360 290.3,-360 296.3,-360 302.3,-366 302.3,-372 302.3,-372 302.3,-384 302.3,-384 302.3,-390 296.3,-396 290.3,-396"/>
<text text-anchor="middle" x="240.8" y="-375.5" font-family="sans" font-size="10.00">short_read_alignment</text>
</g>
<!-- 3&#45;&gt;8 -->
<g id="edge15" class="edge">
<title>3&#45;&gt;8</title>
<path fill="none" stroke="grey" stroke-width="2" d="M144.11,-431.88C161,-422.64 182.04,-411.13 200.18,-401.21"/>
<polygon fill="grey" stroke="grey" stroke-width="2" points="202.27,-404.06 209.37,-396.19 198.91,-397.92 202.27,-404.06"/>
</g>
<!-- 4 -->
<g id="node5" class="node">
<title>4</title>
<path fill="none" stroke="#56b9d8" stroke-width="2" stroke-dasharray="5,2" d="M277.3,-108C277.3,-108 116.3,-108 116.3,-108 110.3,-108 104.3,-102 104.3,-96 104.3,-96 104.3,-84 104.3,-84 104.3,-78 110.3,-72 116.3,-72 116.3,-72 277.3,-72 277.3,-72 283.3,-72 289.3,-78 289.3,-84 289.3,-84 289.3,-96 289.3,-96 289.3,-102 283.3,-108 277.3,-108"/>
<text text-anchor="middle" x="196.8" y="-87.5" font-family="sans" font-size="10.00">short_read_simulation_bam_index</text>
</g>
<!-- 4&#45;&gt;0 -->
<g id="edge4" class="edge">
<title>4&#45;&gt;0</title>
<path fill="none" stroke="grey" stroke-width="2" d="M196.8,-71.7C196.8,-63.98 196.8,-54.71 196.8,-46.11"/>
<polygon fill="grey" stroke="grey" stroke-width="2" points="200.3,-46.1 196.8,-36.1 193.3,-46.1 200.3,-46.1"/>
</g>
<!-- 5&#45;&gt;0 -->
<g id="edge5" class="edge">
<title>5&#45;&gt;0</title>
<path fill="none" stroke="grey" stroke-width="2" d="M127,-143.87C115.03,-134.84 102.3,-122.59 95.8,-108 89.28,-93.39 87.52,-85.69 95.8,-72 109.63,-49.12 136.97,-35.63 159.72,-27.99"/>
<polygon fill="grey" stroke="grey" stroke-width="2" points="160.94,-31.28 169.45,-24.97 158.87,-24.59 160.94,-31.28"/>
</g>
<!-- 5&#45;&gt;4 -->
<g id="edge11" class="edge">
<title>5&#45;&gt;4</title>
<path fill="none" stroke="grey" stroke-width="2" d="M165.18,-143.7C170.06,-135.56 175.98,-125.69 181.38,-116.7"/>
<polygon fill="grey" stroke="grey" stroke-width="2" points="184.39,-118.48 186.54,-108.1 178.39,-114.88 184.39,-118.48"/>
</g>
<!-- 6 -->
<g id="node7" class="node">
<title>6</title>
<path fill="none" stroke="#567bd8" stroke-width="2" stroke-dasharray="5,2" d="M539.3,-324C539.3,-324 456.3,-324 456.3,-324 450.3,-324 444.3,-318 444.3,-312 444.3,-312 444.3,-300 444.3,-300 444.3,-294 450.3,-288 456.3,-288 456.3,-288 539.3,-288 539.3,-288 545.3,-288 551.3,-294 551.3,-300 551.3,-300 551.3,-312 551.3,-312 551.3,-318 545.3,-324 539.3,-324"/>
<text text-anchor="middle" x="497.8" y="-303.5" font-family="sans" font-size="10.00">truthset_index_vcf</text>
</g>
<!-- 6&#45;&gt;0 -->
<g id="edge6" class="edge">
<title>6&#45;&gt;0</title>
<path fill="none" stroke="grey" stroke-width="2" d="M505.68,-287.88C523.84,-245.6 563.13,-135.12 509.8,-72 474.92,-30.72 309.81,-21.58 234.45,-19.57"/>
<polygon fill="grey" stroke="grey" stroke-width="2" points="234.09,-16.06 224.01,-19.32 233.93,-23.06 234.09,-16.06"/>
</g>
<!-- 7 -->
<g id="node8" class="node">
<title>7</title>
<path fill="none" stroke="#569ad8" stroke-width="2" stroke-dasharray="5,2" d="M488.3,-108C488.3,-108 357.3,-108 357.3,-108 351.3,-108 345.3,-102 345.3,-96 345.3,-96 345.3,-84 345.3,-84 345.3,-78 351.3,-72 357.3,-72 357.3,-72 488.3,-72 488.3,-72 494.3,-72 500.3,-78 500.3,-84 500.3,-84 500.3,-96 500.3,-96 500.3,-102 494.3,-108 488.3,-108"/>
<text text-anchor="middle" x="422.8" y="-87.5" font-family="sans" font-size="10.00">freebayes_callset_index_vcf</text>
</g>
<!-- 7&#45;&gt;0 -->
<g id="edge7" class="edge">
<title>7&#45;&gt;0</title>
<path fill="none" stroke="grey" stroke-width="2" d="M367.8,-71.97C326.12,-59.06 269.99,-41.67 233.6,-30.4"/>
<polygon fill="grey" stroke="grey" stroke-width="2" points="234.48,-27.01 223.89,-27.39 232.41,-33.69 234.48,-27.01"/>
</g>
<!-- 8&#45;&gt;1 -->
<g id="edge8" class="edge">
<title>8&#45;&gt;1</title>
<path fill="none" stroke="grey" stroke-width="2" d="M240.32,-359.87C239.63,-335.67 238.38,-291.21 237.57,-262.39"/>
<polygon fill="grey" stroke="grey" stroke-width="2" points="241.06,-262.09 237.28,-252.19 234.07,-262.28 241.06,-262.09"/>
</g>
<!-- 15 -->
<g id="node16" class="node">
<title>15</title>
<path fill="none" stroke="#d85656" stroke-width="2" stroke-dasharray="5,2" d="M382.3,-324C382.3,-324 341.3,-324 341.3,-324 335.3,-324 329.3,-318 329.3,-312 329.3,-312 329.3,-300 329.3,-300 329.3,-294 335.3,-288 341.3,-288 341.3,-288 382.3,-288 382.3,-288 388.3,-288 394.3,-294 394.3,-300 394.3,-300 394.3,-312 394.3,-312 394.3,-318 388.3,-324 382.3,-324"/>
<text text-anchor="middle" x="361.8" y="-303.5" font-family="sans" font-size="10.00">freebayes</text>
</g>
<!-- 8&#45;&gt;15 -->
<g id="edge21" class="edge">
<title>8&#45;&gt;15</title>
<path fill="none" stroke="grey" stroke-width="2" d="M270.4,-359.88C286.37,-350.64 306.26,-339.13 323.4,-329.21"/>
<polygon fill="grey" stroke="grey" stroke-width="2" points="325.18,-332.23 332.08,-324.19 321.68,-326.17 325.18,-332.23"/>
</g>
<!-- 9 -->
<g id="node10" class="node">
<title>9</title>
<path fill="none" stroke="#b6d856" stroke-width="2" stroke-dasharray="5,2" d="M181.8,-612C181.8,-612 43.8,-612 43.8,-612 37.8,-612 31.8,-606 31.8,-600 31.8,-600 31.8,-588 31.8,-588 31.8,-582 37.8,-576 43.8,-576 43.8,-576 181.8,-576 181.8,-576 187.8,-576 193.8,-582 193.8,-588 193.8,-588 193.8,-600 193.8,-600 193.8,-606 187.8,-612 181.8,-612"/>
<text text-anchor="middle" x="112.8" y="-591.5" font-family="sans" font-size="10.00">survivor_simsv_parameterfile</text>
</g>
<!-- 9&#45;&gt;2 -->
<g id="edge9" class="edge">
<title>9&#45;&gt;2</title>
<path fill="none" stroke="grey" stroke-width="2" d="M112.8,-575.7C112.8,-567.98 112.8,-558.71 112.8,-550.11"/>
<polygon fill="grey" stroke="grey" stroke-width="2" points="116.3,-550.1 112.8,-540.1 109.3,-550.1 116.3,-550.1"/>
</g>
<!-- 10 -->
<g id="node11" class="node">
<title>10</title>
<path fill="none" stroke="#56d8d8" stroke-width="2" stroke-dasharray="5,2" d="M497.3,-396C497.3,-396 422.3,-396 422.3,-396 416.3,-396 410.3,-390 410.3,-384 410.3,-384 410.3,-372 410.3,-372 410.3,-366 416.3,-360 422.3,-360 422.3,-360 497.3,-360 497.3,-360 503.3,-360 509.3,-366 509.3,-372 509.3,-372 509.3,-384 509.3,-384 509.3,-390 503.3,-396 497.3,-396"/>
<text text-anchor="middle" x="459.8" y="-375.5" font-family="sans" font-size="10.00">truthset_sort_vcf</text>
</g>
<!-- 10&#45;&gt;6 -->
<g id="edge13" class="edge">
<title>10&#45;&gt;6</title>
<path fill="none" stroke="grey" stroke-width="2" d="M469.19,-359.7C473.56,-351.64 478.86,-341.89 483.69,-332.98"/>
<polygon fill="grey" stroke="grey" stroke-width="2" points="486.82,-334.56 488.51,-324.1 480.67,-331.22 486.82,-334.56"/>
</g>
<!-- 11 -->
<g id="node12" class="node">
<title>11</title>
<path fill="none" stroke="#97d856" stroke-width="2" stroke-dasharray="5,2" d="M484.3,-180C484.3,-180 361.3,-180 361.3,-180 355.3,-180 349.3,-174 349.3,-168 349.3,-168 349.3,-156 349.3,-156 349.3,-150 355.3,-144 361.3,-144 361.3,-144 484.3,-144 484.3,-144 490.3,-144 496.3,-150 496.3,-156 496.3,-156 496.3,-168 496.3,-168 496.3,-174 490.3,-180 484.3,-180"/>
<text text-anchor="middle" x="422.8" y="-159.5" font-family="sans" font-size="10.00">freebayes_callset_sort_vcf</text>
</g>
<!-- 11&#45;&gt;7 -->
<g id="edge14" class="edge">
<title>11&#45;&gt;7</title>
<path fill="none" stroke="grey" stroke-width="2" d="M422.8,-143.7C422.8,-135.98 422.8,-126.71 422.8,-118.11"/>
<polygon fill="grey" stroke="grey" stroke-width="2" points="426.3,-118.1 422.8,-108.1 419.3,-118.1 426.3,-118.1"/>
</g>
<!-- 12 -->
<g id="node13" class="node">
<title>12</title>
<path fill="none" stroke="#56d87b" stroke-width="2" stroke-dasharray="5,2" d="M262.8,-468C262.8,-468 224.8,-468 224.8,-468 218.8,-468 212.8,-462 212.8,-456 212.8,-456 212.8,-444 212.8,-444 212.8,-438 218.8,-432 224.8,-432 224.8,-432 262.8,-432 262.8,-432 268.8,-432 274.8,-438 274.8,-444 274.8,-444 274.8,-456 274.8,-456 274.8,-462 268.8,-468 262.8,-468"/>
<text text-anchor="middle" x="243.8" y="-447.5" font-family="sans" font-size="10.00">index_ref</text>
</g>
<!-- 12&#45;&gt;8 -->
<g id="edge16" class="edge">
<title>12&#45;&gt;8</title>
<path fill="none" stroke="grey" stroke-width="2" d="M243.06,-431.7C242.73,-423.98 242.33,-414.71 241.96,-406.11"/>
<polygon fill="grey" stroke="grey" stroke-width="2" points="245.46,-405.95 241.53,-396.1 238.46,-406.25 245.46,-405.95"/>
</g>
<!-- 13&#45;&gt;10 -->
<g id="edge17" class="edge">
<title>13&#45;&gt;10</title>
<path fill="none" stroke="grey" stroke-width="2" d="M402.58,-431.7C411.97,-423.05 423.48,-412.45 433.71,-403.03"/>
<polygon fill="grey" stroke="grey" stroke-width="2" points="436.24,-405.45 441.23,-396.1 431.5,-400.3 436.24,-405.45"/>
</g>
<!-- 14 -->
<g id="node15" class="node">
<title>14</title>
<path fill="none" stroke="#d6d856" stroke-width="2" stroke-dasharray="5,2" d="M487.8,-252C487.8,-252 357.8,-252 357.8,-252 351.8,-252 345.8,-246 345.8,-240 345.8,-240 345.8,-228 345.8,-228 345.8,-222 351.8,-216 357.8,-216 357.8,-216 487.8,-216 487.8,-216 493.8,-216 499.8,-222 499.8,-228 499.8,-228 499.8,-240 499.8,-240 499.8,-246 493.8,-252 487.8,-252"/>
<text text-anchor="middle" x="422.8" y="-231.5" font-family="sans" font-size="10.00">freebayes_callset_norm_vcf</text>
</g>
<!-- 14&#45;&gt;11 -->
<g id="edge18" class="edge">
<title>14&#45;&gt;11</title>
<path fill="none" stroke="grey" stroke-width="2" d="M422.8,-215.7C422.8,-207.98 422.8,-198.71 422.8,-190.11"/>
<polygon fill="grey" stroke="grey" stroke-width="2" points="426.3,-190.1 422.8,-180.1 419.3,-190.1 426.3,-190.1"/>
</g>
<!-- 15&#45;&gt;14 -->
<g id="edge20" class="edge">
<title>15&#45;&gt;14</title>
<path fill="none" stroke="grey" stroke-width="2" d="M376.88,-287.7C384.19,-279.3 393.11,-269.07 401.13,-259.86"/>
<polygon fill="grey" stroke="grey" stroke-width="2" points="403.96,-261.94 407.89,-252.1 398.68,-257.34 403.96,-261.94"/>
</g>
</g>
</svg>
